<?xml version="1.0" encoding="UTF-8" standalone="no"?>
<svg
   xmlns:dc="http://purl.org/dc/elements/1.1/"
   xmlns:cc="http://creativecommons.org/ns#"
   xmlns:rdf="http://www.w3.org/1999/02/22-rdf-syntax-ns#"
   xmlns:svg="http://www.w3.org/2000/svg"
   xmlns="http://www.w3.org/2000/svg"
   xmlns:sodipodi="http://sodipodi.sourceforge.net/DTD/sodipodi-0.dtd"
   xmlns:inkscape="http://www.inkscape.org/namespaces/inkscape"
   inkscape:version="1.0 (4035a4f, 2020-05-01)"
   sodipodi:docname="right-arrow.svg"
   id="svg835"
   version="1.1"
   width="512"
   viewBox="0 0 24 24"
   height="512"
   fill="none">
  <metadata
     id="metadata841">
    <rdf:RDF>
      <cc:Work
         rdf:about="">
        <dc:format>image/svg+xml</dc:format>
        <dc:type
           rdf:resource="http://purl.org/dc/dcmitype/StillImage" />
      </cc:Work>
    </rdf:RDF>
  </metadata>
  <defs
     id="defs839" />
  <sodipodi:namedview
     inkscape:current-layer="svg835"
     inkscape:window-maximized="0"
     inkscape:window-y="23"
     inkscape:window-x="0"
     inkscape:cy="256"
     inkscape:cx="256"
     inkscape:zoom="1.1953125"
     showgrid="false"
     id="namedview837"
     inkscape:window-height="797"
     inkscape:window-width="1440"
     inkscape:pageshadow="2"
     inkscape:pageopacity="0"
     guidetolerance="10"
     gridtolerance="10"
     objecttolerance="10"
     borderopacity="1"
     bordercolor="#666666"
     pagecolor="#ffffff">
    <ellipse
       ry="5.7450981"
       rx="5.9215689"
       cy="11.901961"
       cx="11.960784"
       id="path843"
       style="fill:#f9b361;stroke-width:0.0624998;paint-order:markers stroke fill;stop-color:#000000" />
  </sodipodi:namedview>
  <ellipse
     ry="5.9019604"
     rx="6.4705882"
     cy="11.941176"
     cx="11.882353"
     id="path848"
     style="fill:#ffffff;stroke-width:0.0624998;paint-order:markers stroke fill;stop-color:#000000" />
  <path
     id="path833"
     fill-rule="evenodd"
     fill="rgb(0,0,0)"
     d="m1.25 12c0-5.93706 4.81294-10.75 10.75-10.75 5.9371 0 10.75 4.81294 10.75 10.75 0 5.9371-4.8129 10.75-10.75 10.75-5.93706 0-10.75-4.8129-10.75-10.75zm12.2803-4.53033c-.2929-.29289-.7677-.29289-1.0606 0s-.2929.76777 0 1.06066l2.2196 2.21967h-7.6893c-.41421 0-.75.3358-.75.75s.33579.75.75.75h7.8472l-2.4116 2.7561c-.2728.3117-.2412.7856.0705 1.0583.3117.2728.7856.2412 1.0583-.0705l3.5-4c.26-.2972.2451-.745-.0341-1.0242z"
     clip-rule="evenodd" />
</svg>
